<mxfile host="app.diagrams.net" modified="2023-03-08T20:14:27.110Z" agent="5.0 (X11; Ubuntu)" etag="pu7a67S28cl4Fr9Uc5HA" version="21.0.4" type="github">
  <diagram name="Página-1" id="h3SCFdqj6WeeeVc0fHT7">
    <mxGraphModel dx="1434" dy="1939" grid="1" gridSize="10" guides="1" tooltips="1" connect="1" arrows="1" fold="1" page="1" pageScale="1" pageWidth="827" pageHeight="1169" math="0" shadow="0">
      <root>
        <mxCell id="0" />
        <mxCell id="1" parent="0" />
        <mxCell id="9kdHL-EbLZPbwyTy0FWT-13" style="edgeStyle=orthogonalEdgeStyle;rounded=0;orthogonalLoop=1;jettySize=auto;html=1;exitX=1;exitY=0.5;exitDx=0;exitDy=0;entryX=0;entryY=0.5;entryDx=0;entryDy=0;endArrow=none;endFill=0;startArrow=block;startFill=0;" parent="1" source="9kdHL-EbLZPbwyTy0FWT-1" target="9kdHL-EbLZPbwyTy0FWT-6" edge="1">
          <mxGeometry relative="1" as="geometry" />
        </mxCell>
        <mxCell id="9kdHL-EbLZPbwyTy0FWT-1" value="Persona" style="swimlane;fontStyle=1;align=center;verticalAlign=top;childLayout=stackLayout;horizontal=1;startSize=26;horizontalStack=0;resizeParent=1;resizeParentMax=0;resizeLast=0;collapsible=1;marginBottom=0;whiteSpace=wrap;html=1;" parent="1" vertex="1">
          <mxGeometry x="280" y="40" width="160" height="94" as="geometry" />
        </mxCell>
        <mxCell id="9kdHL-EbLZPbwyTy0FWT-2" value="&lt;div&gt;- apellido&lt;/div&gt;" style="text;strokeColor=none;fillColor=none;align=left;verticalAlign=top;spacingLeft=4;spacingRight=4;overflow=hidden;rotatable=0;points=[[0,0.5],[1,0.5]];portConstraint=eastwest;whiteSpace=wrap;html=1;" parent="9kdHL-EbLZPbwyTy0FWT-1" vertex="1">
          <mxGeometry y="26" width="160" height="34" as="geometry" />
        </mxCell>
        <mxCell id="9kdHL-EbLZPbwyTy0FWT-3" value="" style="line;strokeWidth=1;fillColor=none;align=left;verticalAlign=middle;spacingTop=-1;spacingLeft=3;spacingRight=3;rotatable=0;labelPosition=right;points=[];portConstraint=eastwest;strokeColor=inherit;" parent="9kdHL-EbLZPbwyTy0FWT-1" vertex="1">
          <mxGeometry y="60" width="160" height="8" as="geometry" />
        </mxCell>
        <mxCell id="9kdHL-EbLZPbwyTy0FWT-4" value="+setters/getters" style="text;strokeColor=none;fillColor=none;align=left;verticalAlign=top;spacingLeft=4;spacingRight=4;overflow=hidden;rotatable=0;points=[[0,0.5],[1,0.5]];portConstraint=eastwest;whiteSpace=wrap;html=1;" parent="9kdHL-EbLZPbwyTy0FWT-1" vertex="1">
          <mxGeometry y="68" width="160" height="26" as="geometry" />
        </mxCell>
        <mxCell id="Rklyi9qJASwiVQysFKJC-1" style="edgeStyle=orthogonalEdgeStyle;rounded=0;orthogonalLoop=1;jettySize=auto;html=1;exitX=0.25;exitY=0;exitDx=0;exitDy=0;entryX=0.25;entryY=1;entryDx=0;entryDy=0;endArrow=none;endFill=0;" edge="1" parent="1" source="9kdHL-EbLZPbwyTy0FWT-5" target="9kdHL-EbLZPbwyTy0FWT-25">
          <mxGeometry relative="1" as="geometry" />
        </mxCell>
        <mxCell id="Rklyi9qJASwiVQysFKJC-4" style="rounded=0;orthogonalLoop=1;jettySize=auto;html=1;exitX=1;exitY=1;exitDx=0;exitDy=0;entryX=0;entryY=0;entryDx=0;entryDy=0;endArrow=diamondThin;endFill=1;" edge="1" parent="1" source="9kdHL-EbLZPbwyTy0FWT-5" target="9kdHL-EbLZPbwyTy0FWT-14">
          <mxGeometry relative="1" as="geometry" />
        </mxCell>
        <mxCell id="Rklyi9qJASwiVQysFKJC-15" style="rounded=0;orthogonalLoop=1;jettySize=auto;html=1;exitX=1;exitY=0;exitDx=0;exitDy=0;entryX=-0.012;entryY=1.154;entryDx=0;entryDy=0;dashed=1;endArrow=open;endFill=0;entryPerimeter=0;" edge="1" parent="1" source="9kdHL-EbLZPbwyTy0FWT-5" target="9kdHL-EbLZPbwyTy0FWT-12">
          <mxGeometry relative="1" as="geometry" />
        </mxCell>
        <mxCell id="9kdHL-EbLZPbwyTy0FWT-5" value="Soldado" style="swimlane;fontStyle=1;align=center;verticalAlign=top;childLayout=stackLayout;horizontal=1;startSize=26;horizontalStack=0;resizeParent=1;resizeParentMax=0;resizeLast=0;collapsible=1;marginBottom=0;whiteSpace=wrap;html=1;" parent="1" vertex="1">
          <mxGeometry x="600" y="40" width="160" height="120" as="geometry" />
        </mxCell>
        <mxCell id="9kdHL-EbLZPbwyTy0FWT-6" value="&lt;div&gt;- graduacion&lt;br&gt;&lt;/div&gt;&lt;div&gt;- compañia&lt;br&gt;&lt;/div&gt;&lt;div&gt;- cuartel&lt;br&gt;&lt;/div&gt;" style="text;strokeColor=none;fillColor=none;align=left;verticalAlign=top;spacingLeft=4;spacingRight=4;overflow=hidden;rotatable=0;points=[[0,0.5],[1,0.5]];portConstraint=eastwest;whiteSpace=wrap;html=1;" parent="9kdHL-EbLZPbwyTy0FWT-5" vertex="1">
          <mxGeometry y="26" width="160" height="54" as="geometry" />
        </mxCell>
        <mxCell id="9kdHL-EbLZPbwyTy0FWT-7" value="" style="line;strokeWidth=1;fillColor=none;align=left;verticalAlign=middle;spacingTop=-1;spacingLeft=3;spacingRight=3;rotatable=0;labelPosition=right;points=[];portConstraint=eastwest;strokeColor=inherit;" parent="9kdHL-EbLZPbwyTy0FWT-5" vertex="1">
          <mxGeometry y="80" width="160" height="8" as="geometry" />
        </mxCell>
        <mxCell id="9kdHL-EbLZPbwyTy0FWT-8" value="+setters/getters" style="text;strokeColor=none;fillColor=none;align=left;verticalAlign=top;spacingLeft=4;spacingRight=4;overflow=hidden;rotatable=0;points=[[0,0.5],[1,0.5]];portConstraint=eastwest;whiteSpace=wrap;html=1;" parent="9kdHL-EbLZPbwyTy0FWT-5" vertex="1">
          <mxGeometry y="88" width="160" height="32" as="geometry" />
        </mxCell>
        <mxCell id="Rklyi9qJASwiVQysFKJC-3" style="edgeStyle=orthogonalEdgeStyle;rounded=0;orthogonalLoop=1;jettySize=auto;html=1;entryX=0.25;entryY=0;entryDx=0;entryDy=0;endArrow=block;endFill=0;" edge="1" parent="1" source="9kdHL-EbLZPbwyTy0FWT-9" target="9kdHL-EbLZPbwyTy0FWT-18">
          <mxGeometry relative="1" as="geometry" />
        </mxCell>
        <mxCell id="9kdHL-EbLZPbwyTy0FWT-9" value="Cuartel" style="swimlane;fontStyle=1;align=center;verticalAlign=top;childLayout=stackLayout;horizontal=1;startSize=26;horizontalStack=0;resizeParent=1;resizeParentMax=0;resizeLast=0;collapsible=1;marginBottom=0;whiteSpace=wrap;html=1;" parent="1" vertex="1">
          <mxGeometry x="1080" y="-240" width="160" height="84" as="geometry" />
        </mxCell>
        <mxCell id="9kdHL-EbLZPbwyTy0FWT-10" value="&lt;div&gt;- ubicacion&lt;br&gt;&lt;/div&gt;" style="text;strokeColor=none;fillColor=none;align=left;verticalAlign=top;spacingLeft=4;spacingRight=4;overflow=hidden;rotatable=0;points=[[0,0.5],[1,0.5]];portConstraint=eastwest;whiteSpace=wrap;html=1;" parent="9kdHL-EbLZPbwyTy0FWT-9" vertex="1">
          <mxGeometry y="26" width="160" height="24" as="geometry" />
        </mxCell>
        <mxCell id="9kdHL-EbLZPbwyTy0FWT-11" value="" style="line;strokeWidth=1;fillColor=none;align=left;verticalAlign=middle;spacingTop=-1;spacingLeft=3;spacingRight=3;rotatable=0;labelPosition=right;points=[];portConstraint=eastwest;strokeColor=inherit;" parent="9kdHL-EbLZPbwyTy0FWT-9" vertex="1">
          <mxGeometry y="50" width="160" height="8" as="geometry" />
        </mxCell>
        <mxCell id="9kdHL-EbLZPbwyTy0FWT-12" value="+setters/getters" style="text;strokeColor=none;fillColor=none;align=left;verticalAlign=top;spacingLeft=4;spacingRight=4;overflow=hidden;rotatable=0;points=[[0,0.5],[1,0.5]];portConstraint=eastwest;whiteSpace=wrap;html=1;" parent="9kdHL-EbLZPbwyTy0FWT-9" vertex="1">
          <mxGeometry y="58" width="160" height="26" as="geometry" />
        </mxCell>
        <mxCell id="9kdHL-EbLZPbwyTy0FWT-24" style="edgeStyle=orthogonalEdgeStyle;rounded=0;orthogonalLoop=1;jettySize=auto;html=1;exitX=0.5;exitY=0;exitDx=0;exitDy=0;endArrow=block;endFill=0;" parent="1" source="9kdHL-EbLZPbwyTy0FWT-14" target="9kdHL-EbLZPbwyTy0FWT-18" edge="1">
          <mxGeometry relative="1" as="geometry">
            <mxPoint x="1200" y="140" as="targetPoint" />
          </mxGeometry>
        </mxCell>
        <mxCell id="9kdHL-EbLZPbwyTy0FWT-14" value="&lt;div&gt;Cuerpo&lt;/div&gt;" style="swimlane;fontStyle=1;align=center;verticalAlign=top;childLayout=stackLayout;horizontal=1;startSize=26;horizontalStack=0;resizeParent=1;resizeParentMax=0;resizeLast=0;collapsible=1;marginBottom=0;whiteSpace=wrap;html=1;" parent="1" vertex="1">
          <mxGeometry x="1120" y="240" width="160" height="60" as="geometry" />
        </mxCell>
        <mxCell id="9kdHL-EbLZPbwyTy0FWT-16" value="" style="line;strokeWidth=1;fillColor=none;align=left;verticalAlign=middle;spacingTop=-1;spacingLeft=3;spacingRight=3;rotatable=0;labelPosition=right;points=[];portConstraint=eastwest;strokeColor=inherit;" parent="9kdHL-EbLZPbwyTy0FWT-14" vertex="1">
          <mxGeometry y="26" width="160" height="8" as="geometry" />
        </mxCell>
        <mxCell id="9kdHL-EbLZPbwyTy0FWT-17" value="+setters/getters" style="text;strokeColor=none;fillColor=none;align=left;verticalAlign=top;spacingLeft=4;spacingRight=4;overflow=hidden;rotatable=0;points=[[0,0.5],[1,0.5]];portConstraint=eastwest;whiteSpace=wrap;html=1;" parent="9kdHL-EbLZPbwyTy0FWT-14" vertex="1">
          <mxGeometry y="34" width="160" height="26" as="geometry" />
        </mxCell>
        <mxCell id="9kdHL-EbLZPbwyTy0FWT-18" value="Identificador" style="swimlane;fontStyle=1;align=center;verticalAlign=top;childLayout=stackLayout;horizontal=1;startSize=26;horizontalStack=0;resizeParent=1;resizeParentMax=0;resizeLast=0;collapsible=1;marginBottom=0;whiteSpace=wrap;html=1;" parent="1" vertex="1">
          <mxGeometry x="1120" y="40" width="160" height="94" as="geometry" />
        </mxCell>
        <mxCell id="9kdHL-EbLZPbwyTy0FWT-19" value="&lt;div&gt;- id_num&lt;br&gt;&lt;/div&gt;&lt;div&gt;- nombre&lt;/div&gt;" style="text;strokeColor=none;fillColor=none;align=left;verticalAlign=top;spacingLeft=4;spacingRight=4;overflow=hidden;rotatable=0;points=[[0,0.5],[1,0.5]];portConstraint=eastwest;whiteSpace=wrap;html=1;" parent="9kdHL-EbLZPbwyTy0FWT-18" vertex="1">
          <mxGeometry y="26" width="160" height="34" as="geometry" />
        </mxCell>
        <mxCell id="9kdHL-EbLZPbwyTy0FWT-20" value="" style="line;strokeWidth=1;fillColor=none;align=left;verticalAlign=middle;spacingTop=-1;spacingLeft=3;spacingRight=3;rotatable=0;labelPosition=right;points=[];portConstraint=eastwest;strokeColor=inherit;" parent="9kdHL-EbLZPbwyTy0FWT-18" vertex="1">
          <mxGeometry y="60" width="160" height="8" as="geometry" />
        </mxCell>
        <mxCell id="9kdHL-EbLZPbwyTy0FWT-21" value="+setters/getters" style="text;strokeColor=none;fillColor=none;align=left;verticalAlign=top;spacingLeft=4;spacingRight=4;overflow=hidden;rotatable=0;points=[[0,0.5],[1,0.5]];portConstraint=eastwest;whiteSpace=wrap;html=1;" parent="9kdHL-EbLZPbwyTy0FWT-18" vertex="1">
          <mxGeometry y="68" width="160" height="26" as="geometry" />
        </mxCell>
        <mxCell id="9kdHL-EbLZPbwyTy0FWT-22" style="edgeStyle=orthogonalEdgeStyle;rounded=0;orthogonalLoop=1;jettySize=auto;html=1;exitX=1;exitY=0.5;exitDx=0;exitDy=0;entryX=0;entryY=0.5;entryDx=0;entryDy=0;endArrow=block;endFill=0;" parent="1" source="9kdHL-EbLZPbwyTy0FWT-6" target="9kdHL-EbLZPbwyTy0FWT-19" edge="1">
          <mxGeometry relative="1" as="geometry" />
        </mxCell>
        <mxCell id="9kdHL-EbLZPbwyTy0FWT-29" style="edgeStyle=orthogonalEdgeStyle;rounded=0;orthogonalLoop=1;jettySize=auto;html=1;exitX=0.5;exitY=0;exitDx=0;exitDy=0;entryX=1;entryY=0;entryDx=0;entryDy=0;endArrow=block;endFill=0;" parent="1" source="9kdHL-EbLZPbwyTy0FWT-25" target="9kdHL-EbLZPbwyTy0FWT-18" edge="1">
          <mxGeometry relative="1" as="geometry">
            <Array as="points">
              <mxPoint x="680" y="-280" />
              <mxPoint x="1280" y="-280" />
            </Array>
          </mxGeometry>
        </mxCell>
        <mxCell id="9kdHL-EbLZPbwyTy0FWT-25" value="Compañia" style="swimlane;fontStyle=1;align=center;verticalAlign=top;childLayout=stackLayout;horizontal=1;startSize=26;horizontalStack=0;resizeParent=1;resizeParentMax=0;resizeLast=0;collapsible=1;marginBottom=0;whiteSpace=wrap;html=1;" parent="1" vertex="1">
          <mxGeometry x="600" y="-240" width="160" height="114" as="geometry" />
        </mxCell>
        <mxCell id="9kdHL-EbLZPbwyTy0FWT-26" value="&lt;div&gt;- actividad&lt;/div&gt;&lt;div&gt;- codigo servicio&lt;br&gt;&lt;/div&gt;&lt;div&gt;- descripción&lt;br&gt;&lt;/div&gt;" style="text;strokeColor=none;fillColor=none;align=left;verticalAlign=top;spacingLeft=4;spacingRight=4;overflow=hidden;rotatable=0;points=[[0,0.5],[1,0.5]];portConstraint=eastwest;whiteSpace=wrap;html=1;" parent="9kdHL-EbLZPbwyTy0FWT-25" vertex="1">
          <mxGeometry y="26" width="160" height="54" as="geometry" />
        </mxCell>
        <mxCell id="9kdHL-EbLZPbwyTy0FWT-27" value="" style="line;strokeWidth=1;fillColor=none;align=left;verticalAlign=middle;spacingTop=-1;spacingLeft=3;spacingRight=3;rotatable=0;labelPosition=right;points=[];portConstraint=eastwest;strokeColor=inherit;" parent="9kdHL-EbLZPbwyTy0FWT-25" vertex="1">
          <mxGeometry y="80" width="160" height="8" as="geometry" />
        </mxCell>
        <mxCell id="9kdHL-EbLZPbwyTy0FWT-28" value="+setters/getters" style="text;strokeColor=none;fillColor=none;align=left;verticalAlign=top;spacingLeft=4;spacingRight=4;overflow=hidden;rotatable=0;points=[[0,0.5],[1,0.5]];portConstraint=eastwest;whiteSpace=wrap;html=1;" parent="9kdHL-EbLZPbwyTy0FWT-25" vertex="1">
          <mxGeometry y="88" width="160" height="26" as="geometry" />
        </mxCell>
        <mxCell id="Rklyi9qJASwiVQysFKJC-5" style="edgeStyle=orthogonalEdgeStyle;rounded=0;orthogonalLoop=1;jettySize=auto;html=1;exitX=1;exitY=0.5;exitDx=0;exitDy=0;entryX=0;entryY=0.375;entryDx=0;entryDy=0;entryPerimeter=0;endArrow=none;endFill=0;" edge="1" parent="1" source="9kdHL-EbLZPbwyTy0FWT-26" target="9kdHL-EbLZPbwyTy0FWT-11">
          <mxGeometry relative="1" as="geometry" />
        </mxCell>
        <mxCell id="Rklyi9qJASwiVQysFKJC-6" value="destina" style="text;html=1;align=center;verticalAlign=middle;resizable=0;points=[];autosize=1;strokeColor=none;fillColor=none;" vertex="1" parent="1">
          <mxGeometry x="890" y="-220" width="60" height="30" as="geometry" />
        </mxCell>
        <mxCell id="Rklyi9qJASwiVQysFKJC-7" value="pertenece" style="text;html=1;align=center;verticalAlign=middle;resizable=0;points=[];autosize=1;strokeColor=none;fillColor=none;" vertex="1" parent="1">
          <mxGeometry x="640" y="-60" width="80" height="30" as="geometry" />
        </mxCell>
        <mxCell id="Rklyi9qJASwiVQysFKJC-8" value="1..1" style="text;html=1;align=center;verticalAlign=middle;resizable=0;points=[];autosize=1;strokeColor=none;fillColor=none;" vertex="1" parent="1">
          <mxGeometry x="640" y="10" width="40" height="30" as="geometry" />
        </mxCell>
        <mxCell id="Rklyi9qJASwiVQysFKJC-9" value="1..n" style="text;html=1;align=center;verticalAlign=middle;resizable=0;points=[];autosize=1;strokeColor=none;fillColor=none;" vertex="1" parent="1">
          <mxGeometry x="640" y="-126" width="40" height="30" as="geometry" />
        </mxCell>
        <mxCell id="Rklyi9qJASwiVQysFKJC-10" value="1..n" style="text;html=1;align=center;verticalAlign=middle;resizable=0;points=[];autosize=1;strokeColor=none;fillColor=none;" vertex="1" parent="1">
          <mxGeometry x="760" y="-217" width="40" height="30" as="geometry" />
        </mxCell>
        <mxCell id="Rklyi9qJASwiVQysFKJC-11" value="1..n" style="text;html=1;align=center;verticalAlign=middle;resizable=0;points=[];autosize=1;strokeColor=none;fillColor=none;" vertex="1" parent="1">
          <mxGeometry x="1040" y="-217" width="40" height="30" as="geometry" />
        </mxCell>
        <mxCell id="Rklyi9qJASwiVQysFKJC-16" value="compone" style="text;html=1;align=center;verticalAlign=middle;resizable=0;points=[];autosize=1;strokeColor=none;fillColor=none;" vertex="1" parent="1">
          <mxGeometry x="920" y="170" width="70" height="30" as="geometry" />
        </mxCell>
      </root>
    </mxGraphModel>
  </diagram>
</mxfile>
